<?xml version="1.0" standalone="no"?>
<!DOCTYPE svg PUBLIC "-//W3C//DTD SVG 20010904//EN"
 "http://www.w3.org/TR/2001/REC-SVG-20010904/DTD/svg10.dtd">
<svg version="1.0" xmlns="http://www.w3.org/2000/svg"
 width="616.000000pt" height="616.000000pt" viewBox="0 0 616.000000 616.000000"
 preserveAspectRatio="xMidYMid meet">
<metadata>
Created by potrace 1.11, written by Peter Selinger 2001-2013
</metadata>
<g transform="translate(0.000000,616.000000) scale(0.100000,-0.100000)"
fill="#000000" stroke="none">
<path d="M998 5839 c-26 -10 -59 -63 -60 -97 -1 -28 12 -81 25 -105 10 -20
135 -146 712 -716 99 -98 188 -193 198 -210 10 -17 21 -53 24 -80 14 -124
-104 -179 -222 -103 -22 14 -146 130 -275 258 -497 492 -634 624 -665 639 -87
40 -185 13 -201 -56 -10 -45 -5 -88 16 -130 13 -25 128 -146 297 -313 610
-601 603 -595 624 -644 29 -66 20 -127 -22 -164 -35 -31 -53 -35 -115 -25 -67
10 -55 -1 -740 677 -169 167 -244 234 -279 250 -26 12 -49 19 -52 16 -3 -3
-13 -1 -22 3 -25 13 -84 -15 -105 -50 -10 -17 -18 -47 -19 -67 -1 -71 32 -119
197 -282 86 -85 324 -321 530 -525 l374 -370 -18 -40 c-33 -73 -47 -109 -65
-165 -9 -30 -19 -62 -22 -70 -9 -22 -10 -28 -27 -105 -14 -65 -19 -93 -33
-170 -8 -50 -10 -361 -2 -417 15 -114 21 -145 35 -208 33 -145 101 -324 178
-463 l54 -97 -70 -58 c-39 -31 -100 -82 -137 -112 -37 -30 -84 -68 -105 -85
-39 -30 -56 -44 -98 -80 -12 -11 -56 -46 -96 -78 -112 -89 -122 -98 -182 -157
-95 -93 -155 -196 -185 -316 -47 -188 -2 -363 122 -475 41 -37 132 -86 174
-94 13 -3 35 -7 49 -10 59 -12 159 -6 244 17 50 12 186 78 186 90 0 4 7 8 15
8 8 0 15 5 15 10 0 6 5 10 11 10 10 0 117 106 199 197 29 33 136 149 240 263
14 15 66 72 115 126 123 134 134 146 143 142 4 -2 51 -25 105 -51 164 -80 386
-145 562 -164 121 -14 452 -6 462 10 2 4 8 5 12 3 10 -7 187 31 234 49 20 8
37 12 37 9 0 -4 6 -2 13 3 10 8 39 19 77 28 3 0 15 6 28 13 12 7 22 11 22 8 0
-9 235 116 300 160 l71 48 27 -29 c15 -17 68 -79 117 -140 50 -60 99 -120 110
-132 11 -11 56 -65 100 -120 221 -272 422 -396 645 -397 86 0 101 3 160 32
124 59 190 168 190 314 0 58 -14 147 -30 183 -12 28 -23 58 -25 70 -2 6 -22
44 -46 85 -31 53 -81 111 -171 200 -70 69 -137 134 -150 145 -47 40 -253 220
-264 230 -6 5 -42 38 -81 72 l-70 63 37 72 c20 40 41 87 48 103 6 17 17 44 23
60 7 17 13 32 14 35 0 3 13 45 29 93 15 49 29 101 31 115 2 15 6 38 9 52 36
153 41 495 11 635 -3 11 -7 31 -9 45 -12 64 -47 192 -70 256 -29 80 -32 98
-13 91 16 -5 154 33 242 68 302 119 586 353 778 642 119 178 207 404 224 573
10 88 5 236 -7 270 -2 3 -2 9 -1 13 1 5 -8 37 -20 70 -82 239 -277 388 -539
415 -263 26 -571 -71 -840 -264 -201 -145 -382 -343 -500 -549 -63 -109 -95
-184 -146 -343 -3 -10 -15 -7 -51 11 -74 38 -237 106 -265 111 -7 1 -19 5 -25
9 -7 5 -13 6 -13 3 0 -3 -12 -1 -27 5 -33 12 -187 45 -258 55 -27 3 -115 7
-195 9 -134 2 -173 -1 -317 -19 -54 -8 -186 -38 -215 -51 -13 -5 -27 4 -55 36
-35 41 -731 737 -985 986 -65 62 -131 118 -153 127 -42 18 -96 20 -137 5z"/>
</g>
</svg>
