<svg enable-background="new 0 0 510 510" height="512" viewBox="0 0 510 510" width="512" xmlns="http://www.w3.org/2000/svg"><path d="m479.618 320.445c11.952-21.146 8.332-48.154-9.751-65.445 18.102-17.31 21.77-44.453 9.601-65.715 17.261-6.3 29.612-22.882 29.612-42.293v-19.492c0-57.904-47.114-105.008-105.008-105.008h-299.064c-57.904 0-105.008 47.103-105.008 105.008v19.492c0 19.412 12.351 35.993 29.612 42.293-12.178 21.278-8.488 48.418 9.601 65.715-18.165 17.37-21.812 44.661-9.441 65.995-16.861 6.51-28.852 22.882-28.852 42.013v19.492c0 57.904 47.114 105.008 105.008 105.008h299.063c57.905 0 105.009-47.103 105.009-105.008v-19.492c0-19.701-12.721-36.482-30.382-42.563zm-74.626 137.061h-299.064c-41.353 0-75.006-33.653-75.006-75.006v-19.492c0-8.271 6.731-15.001 15.001-15.001h231.148c12.352 20.501 37.413 29.062 59.535 20.702v16.991c0 27.112 22.062 49.174 49.174 49.174 27.122 0 49.184-22.062 49.184-49.174v-37.693h30.032c8.271 0 15.001 6.731 15.001 15.001v19.492c.001 41.353-33.652 75.006-75.005 75.006zm-352.468-163.503c0-13.231 10.761-24.002 24.002-24.002h60.065l27.152 33.453c5.18 6.387 14.581 7.447 21.082 2.21l44.053-35.663h41.163v48.004h-193.515c-13.241 0-24.002-10.771-24.002-24.002zm0-78.006c0-12.181 9.121-22.272 20.902-23.792l38.803 47.794h-35.703c-13.241 0-24.002-10.771-24.002-24.002zm-22.522-88.497c0-41.353 33.653-75.006 75.006-75.006h299.063c41.353 0 75.006 33.653 75.006 75.006v19.492c0 8.271-6.73 15.001-15.001 15.001-5.699 0-415.873 0-419.073 0-8.271 0-15.001-6.73-15.001-15.001v-19.492zm426.554 88.497c0 12.421-9.491 22.672-21.592 23.882-1.763.179 9.323.12-169.023.12 0 0 32.264-26.113 59.305-48.004h107.308c13.231 0 24.002 10.771 24.002 24.002zm-278.962 56.915c-.078-.096-65.107-80.193-65.695-80.917h165.663c-3.927 3.179-96.621 78.211-99.968 80.917zm227.368 112.788c0 10.571-8.601 19.171-19.182 19.171-10.571 0-19.172-8.601-19.172-19.171 0-.34.012-52.356-.02-52.694-.656-16.588-23.87-19.922-29.202-4.181-2.746 8.024-10.127 13.051-18.161 13.051-10.582 0-19.181-8.627-19.181-19.182 0-11.049 0-42.055 0-52.694h104.918zm30.002-67.815v-47.764c12.101 1.21 21.592 11.461 21.592 23.882s-9.491 22.672-21.592 23.882z"/><path d="m163.033 115.359c8.281 0 15.001-6.721 15.001-15.001v-7.001c0-8.281-6.721-15.001-15.001-15.001-8.291 0-15.001 6.72-15.001 15.001v7.001c0 8.28 6.71 15.001 15.001 15.001z"/><path d="m224.038 141.361c8.363 0 15.001-6.809 15.001-15.001 0-4.639 0-4.955 0-7.001 0-8.281-6.721-15.001-15.001-15.001-8.291 0-15.001 6.72-15.001 15.001v7.001c-.001 8.284 6.714 15.001 15.001 15.001z"/><path d="m285.042 115.359c8.281 0 15.001-6.721 15.001-15.001v-7.001c0-8.281-6.72-15.001-15.001-15.001-8.291 0-15.001 6.72-15.001 15.001v7.001c0 8.28 6.711 15.001 15.001 15.001z"/><path d="m346.047 141.361c8.363 0 15.001-6.809 15.001-15.001 0-4.639 0-4.955 0-7.001 0-8.281-6.72-15.001-15.001-15.001-8.291 0-15.001 6.72-15.001 15.001v7.001c0 8.284 6.714 15.001 15.001 15.001z"/></svg>
