<svg width="77" height="76" viewBox="0 0 77 76" fill="none" xmlns="http://www.w3.org/2000/svg">
<path d="M66.1038 25.4784C72.1211 19.5871 73.7526 11.4972 69.7472 7.40605C65.7417 3.31495 57.6191 4.77496 51.6018 10.6663C46.4051 15.7542 44.5012 22.4689 46.6515 26.8445L8.5768 57.8235C8.35676 57.9983 8.14107 58.1921 7.93408 58.3948C4.92722 61.3387 4.43595 65.7187 6.83749 68.1716C9.23903 70.6244 13.6284 70.2259 16.6353 67.282C16.8096 67.1114 16.9781 66.9348 17.1343 66.7529L50.4383 30.32C54.7715 32.1233 61.1396 30.3387 66.1038 25.4784Z" fill="#6859EA"/>
<path d="M12.1514 3.75346C11.4415 4.4527 11.643 5.80964 12.6012 6.78235L22.889 16.9162C23.8471 17.8889 24.0487 19.2459 23.3388 19.9451C22.6289 20.6443 21.2752 20.4224 20.317 19.4497L10.0293 9.31582C9.0711 8.34311 7.71734 8.12116 7.00749 8.82039C6.29763 9.51963 6.49916 10.8766 7.45732 11.8493L17.7451 21.9831C18.7033 22.9559 18.9048 24.3128 18.1949 25.012C17.4851 25.7113 16.1313 25.4893 15.1732 24.5166L4.88538 14.3828C3.92721 13.41 2.57346 13.1881 1.86361 13.8873C1.15375 14.5866 1.35527 15.9435 2.31343 16.9162L14.337 28.8122C18.4647 33.0026 24.0691 34.3914 27.8082 32.4511L53.6222 63.5496C52.8018 62.763 54.8083 64.7537 55.0062 64.9546C57.8807 67.8727 62.0322 68.6302 64.1618 66.5325C66.2914 64.4348 65.5243 60.1629 62.6498 57.2448C62.4831 57.0756 61.5321 56.0844 61.3561 55.9315L30.8463 29.146C32.4692 25.4433 31.1404 20.1485 27.1967 16.1449L15.1731 4.24888C14.215 3.27617 12.8612 3.05422 12.1514 3.75346Z" fill="#6859EA"/>
<circle cx="35.3683" cy="39.3723" r="22.3553" fill="#6859EA"/>
<path d="M17.0171 41.9824C17.0171 32.5183 24.8493 39.5488 34.8056 39.5488C44.7618 39.5488 54.0543 33.3295 54.0543 41.9824C54.0543 50.6354 45.4255 49.013 42.1068 48.2018C38.7881 47.3905 34.1418 46.5793 29.0973 48.2018C24.0528 49.8242 17.0171 49.7821 17.0171 41.9824Z" fill="white"/>
<path d="M31.6984 43.7687C31.6984 44.9665 29.5323 45.9375 26.8602 45.9375C24.1882 45.9375 19.8532 42.7976 19.8532 41.5998C19.8532 40.402 22.5226 40.5988 26.3597 41.0993C30.1969 41.5998 31.6984 42.5709 31.6984 43.7687Z" fill="#6859EA"/>
<path d="M39.3716 43.7677C39.3716 44.9655 41.5378 45.9365 44.2098 45.9365C46.8819 45.9365 51.2169 42.7967 51.2169 41.5989C51.2169 40.401 48.5475 40.5979 44.7103 41.0984C40.8731 41.5989 39.3716 42.5699 39.3716 43.7677Z" fill="#6859EA"/>
</svg>
